<svg width="22" height="22" viewBox="0 0 22 22" fill="none" xmlns="http://www.w3.org/2000/svg">
<path d="M2.22114 22C1.5883 22 1.0599 21.788 0.635938 21.3641C0.211979 20.9401 0 20.4117 0 19.7789V15.8125C0 15.4328 0.307804 15.125 0.6875 15.125C1.0672 15.125 1.375 15.4328 1.375 15.8125V19.7789C1.375 19.9904 1.46314 20.1843 1.63941 20.3606C1.81571 20.5369 2.00962 20.625 2.22114 20.625H6.1875C6.5672 20.625 6.875 20.9328 6.875 21.3125C6.875 21.6922 6.5672 22 6.1875 22H2.22114ZM15.8125 22C15.4328 22 15.125 21.6922 15.125 21.3125C15.125 20.9328 15.4328 20.625 15.8125 20.625H19.7789C19.9904 20.625 20.1843 20.5369 20.3606 20.3606C20.5369 20.1843 20.625 19.9904 20.625 19.7789V15.8125C20.625 15.4328 20.9328 15.125 21.3125 15.125C21.6922 15.125 22 15.4328 22 15.8125V19.7789C22 20.4117 21.788 20.9401 21.3641 21.3641C20.9401 21.788 20.4117 22 19.7789 22H15.8125ZM0.6875 6.875C0.307804 6.875 0 6.5672 0 6.1875V2.22114C0 1.5883 0.211979 1.0599 0.635938 0.635938C1.0599 0.211979 1.5883 0 2.22114 0H6.1875C6.5672 0 6.875 0.307804 6.875 0.6875C6.875 1.0672 6.5672 1.375 6.1875 1.375H2.22114C2.00962 1.375 1.81571 1.46314 1.63941 1.63941C1.46314 1.81571 1.375 2.00962 1.375 2.22114V6.1875C1.375 6.56719 1.0672 6.875 0.6875 6.875ZM21.3125 6.875C20.9328 6.875 20.625 6.5672 20.625 6.1875V2.22114C20.625 2.00962 20.5369 1.81571 20.3606 1.63941C20.1843 1.46314 19.9904 1.375 19.7789 1.375H15.8125C15.4328 1.375 15.125 1.0672 15.125 0.6875C15.125 0.307804 15.4328 0 15.8125 0H19.7789C20.4117 0 20.9401 0.211979 21.3641 0.635938C21.788 1.0599 22 1.5883 22 2.22114V6.1875C22 6.56719 21.6922 6.875 21.3125 6.875Z" fill="white"/>
</svg>
