<svg width="22" height="22" viewBox="0 0 22 22" fill="none" xmlns="http://www.w3.org/2000/svg">
<path d="M8.32049 14.6667C8.32049 15.0042 8.5941 15.2778 8.93162 15.2778C9.26913 15.2778 9.54275 15.0042 9.54275 14.6667V7.33335C9.54275 6.99583 9.26913 6.72222 8.93162 6.72222C8.5941 6.72222 8.32049 6.99583 8.32049 7.33335V14.6667ZM12.4573 14.6667C12.4573 15.0042 12.7309 15.2778 13.0684 15.2778C13.4059 15.2778 13.6795 15.0042 13.6795 14.6667V7.33335C13.6795 6.99583 13.4059 6.72222 13.0684 6.72222C12.7309 6.72222 12.4573 6.99583 12.4573 7.33335V14.6667ZM11.0041 22C9.48298 22 8.05288 21.7114 6.71379 21.1341C5.3747 20.5568 4.20987 19.7733 3.2193 18.7837C2.22875 17.7941 1.44456 16.6303 0.866739 15.2925C0.288913 13.9547 0 12.5252 0 11.0041C0 9.48298 0.288638 8.05288 0.865914 6.71379C1.44321 5.3747 2.22668 4.20987 3.21631 3.2193C4.20594 2.22875 5.36967 1.44456 6.70749 0.866739C8.04534 0.288913 9.47481 0 10.9959 0C12.517 0 13.9471 0.288638 15.2862 0.865914C16.6253 1.44321 17.7901 2.22667 18.7807 3.21631C19.7712 4.20594 20.5554 5.36967 21.1333 6.70749C21.7111 8.04534 22 9.47481 22 10.9959C22 12.517 21.7114 13.9471 21.1341 15.2862C20.5568 16.6253 19.7733 17.7901 18.7837 18.7807C17.7941 19.7712 16.6303 20.5554 15.2925 21.1333C13.9547 21.7111 12.5252 22 11.0041 22ZM11 20.7778C13.7296 20.7778 16.0417 19.8306 17.9361 17.9361C19.8306 16.0417 20.7778 13.7296 20.7778 11C20.7778 8.27037 19.8306 5.95833 17.9361 4.06389C16.0417 2.16944 13.7296 1.22222 11 1.22222C8.27037 1.22222 5.95833 2.16944 4.06389 4.06389C2.16944 5.95833 1.22222 8.27037 1.22222 11C1.22222 13.7296 2.16944 16.0417 4.06389 17.9361C5.95833 19.8306 8.27037 20.7778 11 20.7778Z" fill="white"/>
</svg>
