<svg width="68" height="68" viewBox="0 0 68 68" fill="none" xmlns="http://www.w3.org/2000/svg">
<path d="M26.5 47.4135L47.4135 34L26.5 20.5865V47.4135ZM34.0126 67.75C29.3455 67.75 24.9577 66.8644 20.8491 65.0932C16.7406 63.322 13.1667 60.9182 10.1274 57.8818C7.08822 54.8454 4.68219 51.2749 2.90931 47.1702C1.13644 43.0654 0.25 38.6796 0.25 34.0126C0.25 29.3455 1.13559 24.9577 2.90678 20.8491C4.67803 16.7406 7.08184 13.1667 10.1182 10.1274C13.1546 7.08822 16.7251 4.68219 20.8298 2.90931C24.9346 1.13644 29.3204 0.25 33.9874 0.25C38.6545 0.25 43.0423 1.13559 47.1509 2.90678C51.2594 4.67803 54.8333 7.08184 57.8726 10.1182C60.9118 13.1546 63.3178 16.7251 65.0907 20.8298C66.8636 24.9346 67.75 29.3204 67.75 33.9874C67.75 38.6545 66.8644 43.0423 65.0932 47.1509C63.322 51.2594 60.9182 54.8333 57.8818 57.8726C54.8454 60.9118 51.2749 63.3178 47.1702 65.0907C43.0654 66.8636 38.6796 67.75 34.0126 67.75Z" fill="white"/>
</svg>
