<svg width="12" height="16" viewBox="0 0 12 16" fill="none" xmlns="http://www.w3.org/2000/svg">
<path d="M8.99648 1.23748C9.62781 0.612155 10.7002 1.05936 10.7002 1.94796V14.052C10.7002 14.9406 9.62781 15.3878 8.99648 14.7625L6.1175 11.9109C5.93024 11.7255 5.67734 11.6214 5.41378 11.6214H2.16895C1.84571 11.6214 1.53572 11.4942 1.30716 11.2679C1.0786 11.0415 0.950195 10.7344 0.950195 10.4143V5.5857C0.950195 5.26555 1.0786 4.95851 1.30716 4.73212C1.53572 4.50574 1.84571 4.37856 2.16895 4.37856H5.41378C5.67734 4.37856 5.93024 4.27451 6.1175 4.08904L8.99648 1.23748Z" stroke="white" stroke-linecap="round" stroke-linejoin="round"/>
</svg>
