<svg width="22" height="24" viewBox="0 0 22 24" fill="none" xmlns="http://www.w3.org/2000/svg">
<path d="M11.2383 1.16675H10.7617C10.187 1.16675 9.63593 1.39502 9.2296 1.80135C8.82328 2.20768 8.595 2.75878 8.595 3.33341V3.52841C8.59461 3.90837 8.49431 4.28154 8.30417 4.61049C8.11402 4.93944 7.84072 5.2126 7.51167 5.40258L7.04584 5.67341C6.71646 5.86358 6.34283 5.96369 5.9625 5.96369C5.58217 5.96369 5.20854 5.86358 4.87917 5.67341L4.71667 5.58675C4.21949 5.29995 3.62883 5.22215 3.07434 5.37042C2.51985 5.51868 2.04685 5.88091 1.75917 6.37758L1.52084 6.78925C1.23404 7.28643 1.15623 7.87709 1.3045 8.43158C1.45277 8.98607 1.815 9.45907 2.31167 9.74675L2.47417 9.85508C2.80163 10.0441 3.07392 10.3156 3.26397 10.6425C3.45402 10.9694 3.55522 11.3403 3.5575 11.7184V12.2709C3.55902 12.6527 3.45962 13.0281 3.26938 13.3591C3.07914 13.6902 2.80481 13.965 2.47417 14.1559L2.31167 14.2534C1.815 14.5411 1.45277 15.0141 1.3045 15.5686C1.15623 16.1231 1.23404 16.7137 1.52084 17.2109L1.75917 17.6226C2.04685 18.1193 2.51985 18.4815 3.07434 18.6297C3.62883 18.778 4.21949 18.7002 4.71667 18.4134L4.87917 18.3267C5.20854 18.1366 5.58217 18.0365 5.9625 18.0365C6.34283 18.0365 6.71646 18.1366 7.04584 18.3267L7.51167 18.5976C7.84072 18.7876 8.11402 19.0607 8.30417 19.3897C8.49431 19.7186 8.59461 20.0918 8.595 20.4717V20.6667C8.595 21.2414 8.82328 21.7925 9.2296 22.1988C9.63593 22.6051 10.187 22.8334 10.7617 22.8334H11.2383C11.813 22.8334 12.3641 22.6051 12.7704 22.1988C13.1767 21.7925 13.405 21.2414 13.405 20.6667V20.4717C13.4054 20.0918 13.5057 19.7186 13.6958 19.3897C13.886 19.0607 14.1593 18.7876 14.4883 18.5976L14.9542 18.3267C15.2835 18.1366 15.6572 18.0365 16.0375 18.0365C16.4178 18.0365 16.7915 18.1366 17.1208 18.3267L17.2833 18.4134C17.7805 18.7002 18.3712 18.778 18.9257 18.6297C19.4802 18.4815 19.9532 18.1193 20.2408 17.6226L20.4792 17.2001C20.766 16.7029 20.8438 16.1122 20.6955 15.5577C20.5472 15.0033 20.185 14.5303 19.6883 14.2426L19.5258 14.1559C19.1952 13.965 18.9209 13.6902 18.7306 13.3591C18.5404 13.0281 18.441 12.6527 18.4425 12.2709V11.7292C18.441 11.3475 18.5404 10.972 18.7306 10.641C18.9209 10.31 19.1952 10.0351 19.5258 9.84425L19.6883 9.74675C20.185 9.45907 20.5472 8.98607 20.6955 8.43158C20.8438 7.87709 20.766 7.28643 20.4792 6.78925L20.2408 6.37758C19.9532 5.88091 19.4802 5.51868 18.9257 5.37042C18.3712 5.22215 17.7805 5.29995 17.2833 5.58675L17.1208 5.67341C16.7915 5.86358 16.4178 5.96369 16.0375 5.96369C15.6572 5.96369 15.2835 5.86358 14.9542 5.67341L14.4883 5.40258C14.1593 5.2126 13.886 4.93944 13.6958 4.61049C13.5057 4.28154 13.4054 3.90837 13.405 3.52841V3.33341C13.405 2.75878 13.1767 2.20768 12.7704 1.80135C12.3641 1.39502 11.813 1.16675 11.2383 1.16675Z" stroke="white" stroke-linecap="round" stroke-linejoin="round"/>
</svg>
