<svg width="24" height="22" viewBox="0 0 24 22" fill="none" xmlns="http://www.w3.org/2000/svg">
<path d="M2.42306 22C1.73269 22 1.15625 21.7577 0.69375 21.2732C0.23125 20.7887 0 20.1848 0 19.4616V2.53845C0 1.8152 0.23125 1.21131 0.69375 0.726786C1.15625 0.242262 1.73269 0 2.42306 0H21.5769C22.2673 0 22.8438 0.242262 23.3063 0.726786C23.7688 1.21131 24 1.8152 24 2.53845V19.4616C24 20.1848 23.7688 20.7887 23.3063 21.2732C22.8438 21.7577 22.2673 22 21.5769 22H2.42306ZM2.42306 20.4286H21.5769C21.8077 20.4286 22.0192 20.3278 22.2115 20.1264C22.4039 19.9249 22.5 19.7033 22.5 19.4616V2.53845C22.5 2.29671 22.4039 2.0751 22.2115 1.87361C22.0192 1.67216 21.8077 1.57143 21.5769 1.57143H2.42306C2.19231 1.57143 1.98078 1.67216 1.78845 1.87361C1.59615 2.0751 1.5 2.29671 1.5 2.53845V19.4616C1.5 19.7033 1.59615 19.9249 1.78845 20.1264C1.98078 20.3278 2.19231 20.4286 2.42306 20.4286ZM5.65384 15.2308H9C9.44423 15.2308 9.82451 15.0651 10.1409 14.7337C10.4572 14.4023 10.6154 14.0038 10.6154 13.5384V12.9341H9.28845V13.3571C9.28845 13.478 9.24038 13.5888 9.14423 13.6895C9.04808 13.7903 8.94231 13.8407 8.82694 13.8407H5.82694C5.71154 13.8407 5.60576 13.7903 5.50961 13.6895C5.41346 13.5888 5.36539 13.478 5.36539 13.3571V8.64286C5.36539 8.52199 5.41346 8.41119 5.50961 8.31046C5.60576 8.20971 5.71154 8.15933 5.82694 8.15933H8.82694C8.94231 8.15933 9.04808 8.20971 9.14423 8.31046C9.24038 8.41119 9.28845 8.52199 9.28845 8.64286V9.12638H10.6154V8.46155C10.6154 7.99615 10.4572 7.59774 10.1409 7.26632C9.82451 6.93494 9.44423 6.76924 9 6.76924H5.65384C5.20961 6.76924 4.82933 6.93494 4.51298 7.26632C4.19663 7.59774 4.03845 7.99615 4.03845 8.46155V13.5384C4.03845 14.0038 4.19663 14.4023 4.51298 14.7337C4.82933 15.0651 5.20961 15.2308 5.65384 15.2308ZM15 15.2308H18.3462C18.7904 15.2308 19.1707 15.0651 19.487 14.7337C19.8034 14.4023 19.9615 14.0038 19.9615 13.5384V12.9341H18.6346V13.3571C18.6346 13.478 18.5865 13.5888 18.4904 13.6895C18.3942 13.7903 18.2885 13.8407 18.1731 13.8407H15.1731C15.0577 13.8407 14.9519 13.7903 14.8558 13.6895C14.7596 13.5888 14.7115 13.478 14.7115 13.3571V8.64286C14.7115 8.52199 14.7596 8.41119 14.8558 8.31046C14.9519 8.20971 15.0577 8.15933 15.1731 8.15933H18.1731C18.2885 8.15933 18.3942 8.20971 18.4904 8.31046C18.5865 8.41119 18.6346 8.52199 18.6346 8.64286V9.12638H19.9615V8.46155C19.9615 7.99615 19.8034 7.59774 19.487 7.26632C19.1707 6.93494 18.7904 6.76924 18.3462 6.76924H15C14.5558 6.76924 14.1755 6.93494 13.8591 7.26632C13.5428 7.59774 13.3846 7.99615 13.3846 8.46155V13.5384C13.3846 14.0038 13.5428 14.4023 13.8591 14.7337C14.1755 15.0651 14.5558 15.2308 15 15.2308Z" fill="white"/>
</svg>
