<svg width="44" height="44" viewBox="0 0 44 44" fill="none" xmlns="http://www.w3.org/2000/svg">
<rect width="44" height="44" rx="22" fill="#D9D9D9" fill-opacity="0.1"/>
<path d="M22 24C21.4359 24 20.9615 23.8077 20.5769 23.4231C20.1923 23.0385 20 22.5641 20 22V16C20 15.4359 20.1923 14.9615 20.5769 14.5769C20.9615 14.1923 21.4359 14 22 14C22.5641 14 23.0385 14.1923 23.4231 14.5769C23.8077 14.9615 24 15.4359 24 16V22C24 22.5641 23.8077 23.0385 23.4231 23.4231C23.0385 23.8077 22.5641 24 22 24ZM21.5 31.5V27.9827C19.9333 27.8391 18.625 27.1987 17.575 26.0615C16.525 24.9244 16 23.5705 16 22H17C17 23.3833 17.4875 24.5625 18.4625 25.5375C19.4375 26.5125 20.6167 27 22 27C23.3833 27 24.5625 26.5125 25.5375 25.5375C26.5125 24.5625 27 23.3833 27 22H28C28 23.5705 27.475 24.9244 26.425 26.0615C25.375 27.1987 24.0667 27.8391 22.5 27.9827V31.5H21.5ZM22 23C22.2833 23 22.5208 22.9042 22.7125 22.7125C22.9042 22.5208 23 22.2833 23 22V16C23 15.7167 22.9042 15.4792 22.7125 15.2875C22.5208 15.0958 22.2833 15 22 15C21.7167 15 21.4792 15.0958 21.2875 15.2875C21.0958 15.4792 21 15.7167 21 16V22C21 22.2833 21.0958 22.5208 21.2875 22.7125C21.4792 22.9042 21.7167 23 22 23Z" fill="white"/>
</svg>
