<svg width="26" height="26" viewBox="0 0 26 26" fill="none" xmlns="http://www.w3.org/2000/svg">
<mask id="mask0_1477_9613" style="mask-type:alpha" maskUnits="userSpaceOnUse" x="0" y="0" width="26" height="26">
<rect width="26" height="26" fill="#D9D9D9"/>
</mask>
<g mask="url(#mask0_1477_9613)">
<path d="M18.4165 18.4168C18.8679 18.4168 19.2516 18.2588 19.5675 17.9429C19.8835 17.6269 20.0415 17.2432 20.0415 16.7918C20.0415 16.3404 19.8835 15.9568 19.5675 15.6408C19.2516 15.3248 18.8679 15.1668 18.4165 15.1668C17.9651 15.1668 17.5814 15.3248 17.2655 15.6408C16.9495 15.9568 16.7915 16.3404 16.7915 16.7918C16.7915 17.2432 16.9495 17.6269 17.2655 17.9429C17.5814 18.2588 17.9651 18.4168 18.4165 18.4168ZM18.4165 21.6668C18.9901 21.6668 19.5082 21.5394 19.9707 21.2845C20.4332 21.0297 20.8158 20.6856 21.1186 20.2522C20.7075 20.0036 20.2762 19.8161 19.8248 19.6897C19.3734 19.5634 18.904 19.5002 18.4165 19.5002C17.929 19.5002 17.4596 19.5634 17.0082 19.6897C16.5568 19.8161 16.1255 20.0036 15.7144 20.2522C16.0172 20.6856 16.3998 21.0297 16.8623 21.2845C17.3248 21.5394 17.8429 21.6668 18.4165 21.6668ZM12.9998 22.7085C10.8234 22.0627 9.01545 20.7443 7.57588 18.7533C6.1363 16.7623 5.4165 14.5196 5.4165 12.0252V6.16682L12.9998 3.3335L20.5832 6.16682V12.2939C20.4207 12.2328 20.2422 12.1783 20.0478 12.1304C19.8533 12.0825 19.6707 12.0384 19.4998 11.9981V6.91267L12.9998 4.49599L6.49984 6.91267V12.0252C6.49984 13.096 6.65782 14.1217 6.9738 15.1022C7.28977 16.0828 7.72032 16.9845 8.26545 17.8075C8.81059 18.6304 9.45538 19.3495 10.1998 19.9648C10.9443 20.58 11.738 21.0488 12.5811 21.371L12.6436 21.3502C12.7311 21.5668 12.8401 21.7772 12.9707 21.9814C13.1012 22.1856 13.2491 22.3772 13.4144 22.5564C13.3408 22.5842 13.2717 22.6095 13.2071 22.6325C13.1425 22.6554 13.0735 22.6807 12.9998 22.7085ZM18.4165 22.7502C17.2096 22.7502 16.1856 22.3297 15.3446 21.4887C14.5037 20.6477 14.0832 19.6238 14.0832 18.4168C14.0832 17.2099 14.5037 16.1859 15.3446 15.345C16.1856 14.504 17.2096 14.0835 18.4165 14.0835C19.6234 14.0835 20.6474 14.504 21.4884 15.345C22.3293 16.1859 22.7498 17.2099 22.7498 18.4168C22.7498 19.6238 22.3293 20.6477 21.4884 21.4887C20.6474 22.3297 19.6234 22.7502 18.4165 22.7502Z" fill="#D9D9D9"/>
</g>
</svg>
