<svg width="26" height="26" viewBox="0 0 26 26" fill="none" xmlns="http://www.w3.org/2000/svg">
<mask id="mask0_1477_9589" style="mask-type:alpha" maskUnits="userSpaceOnUse" x="0" y="0" width="26" height="26">
<rect width="26" height="26" fill="#D9D9D9"/>
</mask>
<g mask="url(#mask0_1477_9589)">
<path d="M12.5644 21.2125C14.37 20.6486 15.8315 19.6111 16.9488 18.1C18.0662 16.5889 18.6249 14.8889 18.6249 13C18.6249 11.1111 18.0662 9.41112 16.9488 7.89999C15.8315 6.38889 14.37 5.35139 12.5644 4.78749C13.6269 5.89305 14.4339 7.15243 14.9853 8.56562C15.5367 9.97883 15.8124 11.457 15.8124 13C15.8124 14.543 15.5367 16.0212 14.9853 17.4344C14.4339 18.8476 13.6269 20.1069 12.5644 21.2125ZM9.95818 22.75C9.77346 22.75 9.59776 22.7406 9.43109 22.7219C9.26443 22.7031 9.09291 22.675 8.9165 22.6375C10.7151 21.7028 12.1335 20.3708 13.1717 18.6417C14.2099 16.9125 14.729 15.032 14.729 13C14.729 10.968 14.2099 9.08749 13.1717 7.35833C12.1335 5.62916 10.7151 4.29722 8.9165 3.3625C9.09291 3.325 9.26443 3.29687 9.43109 3.27811C9.59776 3.25937 9.77346 3.25 9.95818 3.25C11.3069 3.25 12.5744 3.50584 13.7607 4.01751C14.9469 4.52921 15.9788 5.22364 16.8563 6.10082C17.7338 6.97799 18.4285 8.00948 18.9404 9.19528C19.4523 10.3811 19.7082 11.6481 19.7082 12.9964C19.7082 14.3446 19.4523 15.6122 18.9404 16.7991C18.4285 17.9861 17.7338 19.0185 16.8563 19.8965C15.9788 20.7745 14.9469 21.4696 13.7607 21.9818C12.5744 22.4939 11.3069 22.75 9.95818 22.75Z" fill="#D9D9D9"/>
</g>
</svg>
