<svg width="26" height="26" viewBox="0 0 26 26" fill="none" xmlns="http://www.w3.org/2000/svg">
<mask id="mask0_1477_9802" style="mask-type:alpha" maskUnits="userSpaceOnUse" x="0" y="0" width="26" height="26">
<rect width="26" height="26" fill="#D9D9D9"/>
</mask>
<g mask="url(#mask0_1477_9802)">
<path d="M8.44984 18.4163C7.68177 18.4163 6.9335 18.2782 6.20504 18.0018C5.47657 17.7254 4.83386 17.3268 4.27692 16.8059C3.54914 16.1045 3.01546 15.2611 2.67589 14.2757C2.3363 13.2903 2.1665 12.2782 2.1665 11.2393C2.1665 10.1642 2.41928 9.28613 2.92484 8.60489C3.43039 7.92364 4.16859 7.58301 5.13941 7.58301C5.30887 7.58301 5.47866 7.59864 5.6488 7.62989C5.81893 7.66113 5.98664 7.708 6.15192 7.77051L12.9998 10.3476L19.8477 7.77051C20.013 7.708 20.1807 7.66113 20.3509 7.62989C20.521 7.59864 20.6908 7.58301 20.8603 7.58301C21.8311 7.58301 22.5693 7.92364 23.0748 8.60489C23.5804 9.28613 23.8332 10.1642 23.8332 11.2393C23.8332 12.2782 23.6634 13.2903 23.3238 14.2757C22.9842 15.2611 22.4505 16.1045 21.7228 16.8059C21.1658 17.3268 20.5231 17.7254 19.7946 18.0018C19.0662 18.2782 18.3179 18.4163 17.5498 18.4163C16.5526 18.4163 15.6561 18.1455 14.8602 17.6038L13.6665 16.7913H12.3332L11.1394 17.6038C10.3436 18.1455 9.44706 18.4163 8.44984 18.4163ZM8.44984 17.333C9.11789 17.333 9.74081 17.175 10.3186 16.859C10.8964 16.5431 11.429 16.1594 11.9165 15.708H14.0832C14.5707 16.1594 15.1033 16.5431 15.6811 16.859C16.2589 17.175 16.8818 17.333 17.5498 17.333C18.1998 17.333 18.8273 17.2202 19.4321 16.9945C20.037 16.7688 20.5741 16.4212 21.0436 15.9518C21.6575 15.3379 22.0953 14.6156 22.3571 13.7851C22.6189 12.9545 22.7498 12.1059 22.7498 11.2393C22.7498 10.499 22.5964 9.88058 22.2894 9.38405C21.9825 8.88752 21.495 8.64829 20.8269 8.66634C20.7728 8.66634 20.5741 8.70245 20.2311 8.77467L12.9998 11.483L5.76859 8.77467C5.67831 8.73856 5.58352 8.71148 5.48421 8.69342C5.38491 8.67537 5.28109 8.66634 5.17275 8.66634C4.5047 8.66634 4.0172 8.91009 3.71025 9.39759C3.40331 9.88509 3.24984 10.499 3.24984 11.2393C3.24984 12.124 3.38074 12.9816 3.64255 13.8122C3.90435 14.6427 4.35123 15.365 4.98317 15.9788C5.45262 16.4302 5.98525 16.7688 6.58109 16.9945C7.17692 17.2202 7.79984 17.333 8.44984 17.333ZM9.77692 15.3747C10.3339 15.3747 10.7707 15.257 11.0873 15.0216C11.404 14.7861 11.5693 14.4552 11.5832 14.0288C11.5554 13.2274 10.9974 12.4597 9.90922 11.7257C8.82101 10.9917 7.67552 10.6247 6.47275 10.6247C5.91581 10.6247 5.479 10.7424 5.16233 10.9778C4.84567 11.2132 4.6804 11.5441 4.66651 11.9705C4.69428 12.7719 5.25226 13.5396 6.34045 14.2736C7.42866 15.0077 8.57415 15.3747 9.77692 15.3747ZM9.73941 14.4163C8.83109 14.4163 7.937 14.1525 7.05713 13.6247C6.17727 13.0969 5.69983 12.5497 5.62483 11.983C5.65955 11.8636 5.75296 11.766 5.90506 11.6903C6.05714 11.6146 6.25888 11.5768 6.51026 11.5768C7.41858 11.5768 8.31268 11.8417 9.19254 12.3716C10.0724 12.9014 10.5498 13.4497 10.6248 14.0163C10.5901 14.1358 10.4967 14.2323 10.3446 14.3059C10.1925 14.3795 9.9908 14.4163 9.73941 14.4163ZM16.2228 15.4017C17.4255 15.4017 18.571 15.0302 19.6592 14.2872C20.7474 13.5441 21.3054 12.7719 21.3332 11.9705C21.3193 11.558 21.155 11.2261 20.8405 10.9747C20.5259 10.7233 20.088 10.5976 19.5269 10.5976C18.338 10.6254 17.196 11.0073 16.1009 11.7434C15.0057 12.4795 14.4443 13.2413 14.4165 14.0288C14.4304 14.4413 14.5957 14.7733 14.9123 15.0247C15.229 15.2761 15.6658 15.4017 16.2228 15.4017ZM16.2603 14.4372C16.0228 14.4233 15.8255 14.3795 15.6686 14.3059C15.5116 14.2323 15.4158 14.1358 15.3811 14.0163C15.4561 13.4636 15.9335 12.9233 16.8134 12.3955C17.6933 11.8677 18.5873 11.59 19.4957 11.5622C19.7332 11.5761 19.9304 11.6198 20.0873 11.6934C20.2443 11.767 20.3401 11.8636 20.3748 11.983C20.2998 12.5497 19.8224 13.1004 18.9425 13.6351C18.0627 14.1698 17.1686 14.4372 16.2603 14.4372Z" fill="white"/>
</g>
</svg>
