<svg width="26" height="26" viewBox="0 0 26 26" fill="none" xmlns="http://www.w3.org/2000/svg">
<mask id="mask0_1477_9605" style="mask-type:alpha" maskUnits="userSpaceOnUse" x="0" y="0" width="26" height="26">
<rect width="26" height="26" fill="#D9D9D9"/>
</mask>
<g mask="url(#mask0_1477_9605)">
<path d="M13 22.75C11.6583 22.75 10.3944 22.4934 9.20833 21.9802C8.02223 21.467 6.98924 20.7705 6.10938 19.8906C5.22951 19.0108 4.53298 17.9778 4.01979 16.7917C3.5066 15.6056 3.25 14.3417 3.25 13C3.25 11.6542 3.5066 10.3892 4.01979 9.20522C4.53298 8.02119 5.22951 6.98924 6.10938 6.10938C6.98924 5.22951 8.02223 4.53298 9.20833 4.01979C10.3944 3.5066 11.6583 3.25 13 3.25C14.3458 3.25 15.6108 3.5066 16.7948 4.01979C17.9788 4.53298 19.0108 5.22951 19.8906 6.10938C20.7705 6.98924 21.467 8.02119 21.9802 9.20522C22.4934 10.3892 22.75 11.6542 22.75 13C22.75 14.3417 22.4934 15.6056 21.9802 16.7917C21.467 17.9778 20.7705 19.0108 19.8906 19.8906C19.0108 20.7705 17.9788 21.467 16.7948 21.9802C15.6108 22.4934 14.3458 22.75 13 22.75ZM13 21.675C13.6361 20.8583 14.1604 20.0563 14.5729 19.2688C14.9854 18.4813 15.3208 17.6 15.5792 16.625H10.4208C10.7069 17.6556 11.0493 18.5646 11.4479 19.3521C11.8465 20.1396 12.3639 20.9139 13 21.675ZM11.6208 21.5125C11.1153 20.9167 10.6538 20.1802 10.2364 19.3031C9.81909 18.426 9.50833 17.5333 9.30415 16.625H5.15C5.77084 17.9722 6.65105 19.0771 7.79063 19.9396C8.93021 20.8021 10.2069 21.3264 11.6208 21.5125ZM14.3792 21.5125C15.7931 21.3264 17.0698 20.8021 18.2094 19.9396C19.3489 19.0771 20.2292 17.9722 20.85 16.625H16.6958C16.4222 17.5472 16.0767 18.4469 15.6594 19.324C15.242 20.201 14.8153 20.9306 14.3792 21.5125ZM4.70833 15.5417H9.07917C8.99722 15.0972 8.93923 14.6642 8.90522 14.2427C8.87118 13.8212 8.85417 13.4069 8.85417 13C8.85417 12.5931 8.87118 12.1788 8.90522 11.7573C8.93923 11.3358 8.99722 10.9028 9.07917 10.4583H4.70833C4.59028 10.8333 4.49827 11.242 4.4323 11.6844C4.36632 12.1267 4.33333 12.5653 4.33333 13C4.33333 13.4347 4.36632 13.8733 4.4323 14.3156C4.49827 14.758 4.59028 15.1667 4.70833 15.5417ZM10.1625 15.5417H15.8375C15.9194 15.0972 15.9774 14.6712 16.0115 14.2635C16.0455 13.8559 16.0625 13.4347 16.0625 13C16.0625 12.5653 16.0455 12.1441 16.0115 11.7365C15.9774 11.3288 15.9194 10.9028 15.8375 10.4583H10.1625C10.0806 10.9028 10.0226 11.3288 9.98855 11.7365C9.95452 12.1441 9.9375 12.5653 9.9375 13C9.9375 13.4347 9.95452 13.8559 9.98855 14.2635C10.0226 14.6712 10.0806 15.0972 10.1625 15.5417ZM16.9208 15.5417H21.2917C21.4097 15.1667 21.5017 14.758 21.5677 14.3156C21.6337 13.8733 21.6667 13.4347 21.6667 13C21.6667 12.5653 21.6337 12.1267 21.5677 11.6844C21.5017 11.242 21.4097 10.8333 21.2917 10.4583H16.9208C17.0028 10.9028 17.0608 11.3358 17.0948 11.7573C17.1288 12.1788 17.1458 12.5931 17.1458 13C17.1458 13.4069 17.1288 13.8212 17.0948 14.2427C17.0608 14.6642 17.0028 15.0972 16.9208 15.5417ZM16.6958 9.375H20.85C20.2153 8 19.3455 6.89514 18.2406 6.06041C17.1358 5.2257 15.8486 4.69445 14.3792 4.46666C14.8847 5.13194 15.3392 5.8927 15.7427 6.74895C16.1462 7.6052 16.4639 8.48055 16.6958 9.375ZM10.4208 9.375H15.5792C15.2931 8.35833 14.9403 7.43889 14.5208 6.61668C14.1014 5.79444 13.5944 5.03055 13 4.32499C12.4056 5.03055 11.8986 5.79444 11.4792 6.61668C11.0597 7.43889 10.7069 8.35833 10.4208 9.375ZM5.15 9.375H9.30415C9.5361 8.48055 9.85381 7.6052 10.2573 6.74895C10.6608 5.8927 11.1153 5.13194 11.6208 4.46666C10.1375 4.69445 8.84687 5.22918 7.74895 6.07084C6.65104 6.9125 5.78473 8.01389 5.15 9.375Z" fill="#D9D9D9"/>
</g>
</svg>
