<svg width="26" height="26" viewBox="0 0 26 26" fill="none" xmlns="http://www.w3.org/2000/svg">
<mask id="mask0_1477_9789" style="mask-type:alpha" maskUnits="userSpaceOnUse" x="0" y="0" width="26" height="26">
<rect width="26" height="26" fill="#D9D9D9"/>
</mask>
<g mask="url(#mask0_1477_9789)">
<path d="M12.9998 12.333C12.1061 12.333 11.341 12.0148 10.7045 11.3783C10.0681 10.7419 9.74984 9.97679 9.74984 9.08304C9.74984 8.18927 10.0681 7.42415 10.7045 6.7877C11.341 6.15124 12.1061 5.83301 12.9998 5.83301C13.8936 5.83301 14.6587 6.15124 15.2952 6.7877C15.9316 7.42415 16.2498 8.18927 16.2498 9.08304C16.2498 9.97679 15.9316 10.7419 15.2952 11.3783C14.6587 12.0148 13.8936 12.333 12.9998 12.333ZM5.4165 20.1664V18.383C5.4165 17.9358 5.54671 17.5174 5.80713 17.1278C6.06754 16.7382 6.41789 16.4358 6.85818 16.2205C7.88039 15.7302 8.9033 15.3625 9.92691 15.1174C10.9505 14.8723 11.9748 14.7497 12.9998 14.7497C14.0248 14.7497 15.0491 14.8723 16.0728 15.1174C17.0964 15.3625 18.1193 15.7302 19.1415 16.2205C19.5818 16.4358 19.9321 16.7382 20.1925 17.1278C20.453 17.5174 20.5832 17.9358 20.5832 18.383V20.1664H5.4165ZM6.49984 19.083H19.4998V18.383C19.4998 18.1428 19.4224 17.9171 19.2675 17.7059C19.1127 17.4948 18.8984 17.3164 18.6248 17.1705C17.7332 16.7386 16.8138 16.4077 15.8668 16.1778C14.9197 15.9479 13.9641 15.833 12.9998 15.833C12.0356 15.833 11.0799 15.9479 10.1329 16.1778C9.18585 16.4077 8.2665 16.7386 7.37485 17.1705C7.10123 17.3164 6.88699 17.4948 6.73213 17.7059C6.57727 17.9171 6.49984 18.1428 6.49984 18.383V19.083ZM12.9998 11.2497C13.5957 11.2497 14.1057 11.0375 14.53 10.6132C14.9544 10.1889 15.1665 9.67887 15.1665 9.08304C15.1665 8.4872 14.9544 7.97713 14.53 7.55283C14.1057 7.12852 13.5957 6.91637 12.9998 6.91637C12.404 6.91637 11.8939 7.12852 11.4696 7.55283C11.0453 7.97713 10.8332 8.4872 10.8332 9.08304C10.8332 9.67887 11.0453 10.1889 11.4696 10.6132C11.8939 11.0375 12.404 11.2497 12.9998 11.2497Z" fill="white"/>
</g>
</svg>
