<svg width="26" height="26" viewBox="0 0 26 26" fill="none" xmlns="http://www.w3.org/2000/svg">
<mask id="mask0_1477_9794" style="mask-type:alpha" maskUnits="userSpaceOnUse" x="0" y="0" width="26" height="26">
<rect width="26" height="26" fill="#D9D9D9"/>
</mask>
<g mask="url(#mask0_1477_9794)">
<path d="M18.2919 14.7497C17.7002 14.7497 17.1911 14.5365 16.7648 14.1101C16.3384 13.6837 16.1252 13.1747 16.1252 12.583C16.1252 11.9914 16.3384 11.4823 16.7648 11.0559C17.1911 10.6295 17.7002 10.4163 18.2919 10.4163C18.8835 10.4163 19.3925 10.6295 19.8189 11.0559C20.2453 11.4823 20.4585 11.9914 20.4585 12.583C20.4585 13.1747 20.2453 13.6837 19.8189 14.1101C19.3925 14.5365 18.8835 14.7497 18.2919 14.7497ZM13.4169 20.1664V19.1914C13.4169 18.8553 13.5008 18.5505 13.6686 18.2772C13.8364 18.0039 14.0747 17.8072 14.3835 17.6872C14.9937 17.4302 15.625 17.2375 16.2776 17.1091C16.9302 16.9806 17.6016 16.9163 18.2919 16.9163C18.954 16.9163 19.6119 16.9806 20.2655 17.1091C20.9192 17.2375 21.5641 17.4302 22.2002 17.6872C22.509 17.8072 22.7473 18.0039 22.9151 18.2772C23.0829 18.5505 23.1669 18.8553 23.1669 19.1914V20.1664H13.4169ZM10.4168 12.333C9.52308 12.333 8.75798 12.0148 8.12152 11.3783C7.48506 10.7419 7.16683 9.97679 7.16683 9.08304C7.16683 8.18927 7.48506 7.42415 8.12152 6.7877C8.75798 6.15124 9.52308 5.83301 10.4168 5.83301C11.3106 5.83301 12.0757 6.15124 12.7122 6.7877C13.3486 7.42415 13.6669 8.18927 13.6669 9.08304C13.6669 9.97679 13.3486 10.7419 12.7122 11.3783C12.0757 12.0148 11.3106 12.333 10.4168 12.333ZM2.8335 20.1664V18.383C2.8335 17.9144 2.96267 17.4838 3.221 17.091C3.47934 16.6982 3.83073 16.408 4.27517 16.2205C5.2335 15.7344 6.22869 15.3678 7.26073 15.1205C8.29277 14.8733 9.3448 14.7497 10.4168 14.7497C10.8543 14.7497 11.2918 14.7726 11.7293 14.8184C12.1668 14.8643 12.6044 14.9247 13.0419 14.9997L12.1169 15.9664C11.8335 15.9108 11.5502 15.8747 11.2668 15.858C10.9835 15.8414 10.7002 15.833 10.4168 15.833C9.43907 15.833 8.47345 15.9386 7.51997 16.1497C6.56649 16.3608 5.65711 16.7011 4.79184 17.1705C4.55573 17.3025 4.35087 17.4671 4.17726 17.6643C4.00364 17.8615 3.91683 18.1011 3.91683 18.383V19.083H10.4168V20.1664H2.8335ZM10.4168 11.2497C11.0127 11.2497 11.5227 11.0375 11.947 10.6132C12.3713 10.1889 12.5835 9.67887 12.5835 9.08304C12.5835 8.4872 12.3713 7.97713 11.947 7.55283C11.5227 7.12852 11.0127 6.91637 10.4168 6.91637C9.821 6.91637 9.31093 7.12852 8.88662 7.55283C8.46232 7.97713 8.25016 8.4872 8.25016 9.08304C8.25016 9.67887 8.46232 10.1889 8.88662 10.6132C9.31093 11.0375 9.821 11.2497 10.4168 11.2497Z" fill="white"/>
</g>
</svg>
