<svg width="26" height="26" viewBox="0 0 26 26" fill="none" xmlns="http://www.w3.org/2000/svg">
<mask id="mask0_1477_9807" style="mask-type:alpha" maskUnits="userSpaceOnUse" x="0" y="0" width="26" height="26">
<rect width="26" height="26" fill="#D9D9D9"/>
</mask>
<g mask="url(#mask0_1477_9807)">
<path d="M22.4963 11.8451L22.4973 11.8291C22.5032 11.7363 22.5015 11.367 22.2668 11.1123C22.1233 10.9567 21.9038 10.8517 21.5494 10.8517H21.5488L20.3954 10.8502C20.3953 10.8502 20.3952 10.8502 20.3951 10.8502L20.3948 10.8502L20.3954 10.3502L22.4963 11.8451ZM22.4963 11.8451L22.4963 11.8611M22.4963 11.8451L22.4963 11.8611M22.4963 11.8611L22.5 16.5635L22.4963 11.8611ZM12.8023 7.54179H8.54931C7.50978 7.54179 6.66242 8.38059 6.66242 9.4211C6.66242 10.4616 7.50978 11.3004 8.54931 11.3004H12.8023C13.8418 11.3004 14.6892 10.4616 14.6892 9.4211C14.6892 8.38059 13.8418 7.54179 12.8023 7.54179ZM8.54931 18.2741H17.1906C18.2301 18.2741 19.0774 17.4353 19.0774 16.3948C19.0774 15.3543 18.23 14.5155 17.1905 14.5155H8.54931C7.50978 14.5155 6.66242 15.3543 6.66242 16.3948C6.66242 17.4353 7.50978 18.2741 8.54931 18.2741Z" stroke="white"/>
</g>
</svg>
