<svg width="26" height="26" viewBox="0 0 26 26" fill="none" xmlns="http://www.w3.org/2000/svg">
<mask id="mask0_1477_9597" style="mask-type:alpha" maskUnits="userSpaceOnUse" x="0" y="0" width="26" height="26">
<rect width="26" height="26" fill="#D9D9D9"/>
</mask>
<g mask="url(#mask0_1477_9597)">
<path d="M12.946 21.6663L16.9002 11.2663H18.6877L22.6418 21.6663H20.8543L19.9335 19.0122H15.7085L14.7877 21.6663H12.946ZM16.2502 17.4955H19.3377L17.821 13.2163H17.7668L16.2502 17.4955ZM6.121 19.0663L4.87516 17.8205L9.26266 13.433C8.721 12.8372 8.24704 12.2143 7.84079 11.5643C7.43454 10.9143 7.07794 10.2372 6.771 9.53301H8.5585C8.82933 10.0566 9.10919 10.5215 9.39808 10.9278C9.68697 11.334 10.0391 11.7719 10.4543 12.2413C11.1043 11.5372 11.6415 10.824 12.0658 10.1018C12.4901 9.37954 12.8377 8.61217 13.1085 7.79967H3.521V6.06634H9.58766V4.33301H11.321V6.06634H17.3877V7.79967H14.8418C14.5349 8.81079 14.1241 9.79933 13.6095 10.7653C13.095 11.7313 12.4585 12.6386 11.7002 13.4872L13.7585 15.5997L13.1085 17.3872L10.4543 14.733L6.121 19.0663Z" fill="#D9D9D9"/>
</g>
</svg>
