<svg width="26" height="26" viewBox="0 0 26 26" fill="none" xmlns="http://www.w3.org/2000/svg">
<mask id="mask0_1533_19240" style="mask-type:alpha" maskUnits="userSpaceOnUse" x="0" y="0" width="26" height="26">
<rect width="26" height="26" fill="#D9D9D9"/>
</mask>
<g mask="url(#mask0_1533_19240)">
<path d="M13 22C12.6176 22 12.3077 21.69 12.3077 21.3077V14.6923C12.3077 14.14 11.86 13.6923 11.3077 13.6923H4.69231C4.30996 13.6923 4 13.3824 4 13C4 12.6176 4.30996 12.3077 4.69231 12.3077H11.3077C11.86 12.3077 12.3077 11.86 12.3077 11.3077V4.69231C12.3077 4.30996 12.6176 4 13 4C13.3824 4 13.6923 4.30996 13.6923 4.69231V11.3077C13.6923 11.86 14.14 12.3077 14.6923 12.3077H21.3077C21.69 12.3077 22 12.6176 22 13C22 13.3824 21.69 13.6923 21.3077 13.6923H14.6923C14.14 13.6923 13.6923 14.14 13.6923 14.6923V21.3077C13.6923 21.69 13.3824 22 13 22Z" fill="white"/>
</g>
</svg>
