<svg width="26" height="24" viewBox="0 0 26 24" fill="none" xmlns="http://www.w3.org/2000/svg">
<mask id="mask0_2069_25939" style="mask-type:alpha" maskUnits="userSpaceOnUse" x="0" y="0" width="26" height="24">
<rect x="25.7324" y="24" width="25.654" height="24" rx="1" transform="rotate(-180 25.7324 24)" fill="#D9D9D9"/>
</mask>
<g mask="url(#mask0_2069_25939)">
<path d="M7.77028 2.88095C8.06884 2.60164 8.53283 2.60164 8.83139 2.88095L17.4694 10.962C17.8919 11.3572 17.8919 12.0274 17.4694 12.4226L8.83139 20.5036C8.53283 20.783 8.06884 20.783 7.77027 20.5036C7.44221 20.1967 7.44221 19.6763 7.77028 19.3694L15.1959 12.4226C15.6183 12.0274 15.6183 11.3572 15.1959 10.962L7.77028 4.0152C7.44221 3.70828 7.44221 3.18787 7.77028 2.88095Z" fill="#6486DB"/>
</g>
</svg>
