<svg width="26" height="27" viewBox="0 0 26 27" fill="none" xmlns="http://www.w3.org/2000/svg">
<mask id="mask0_1361_7614" style="mask-type:alpha" maskUnits="userSpaceOnUse" x="0" y="0" width="26" height="27">
<rect y="0.5" width="26" height="26" fill="#D9D9D9"/>
</mask>
<g mask="url(#mask0_1361_7614)">
<path d="M4.76634 23.2917C3.9057 23.2917 3.20801 22.594 3.20801 21.7334V12.1278C3.20801 11.2672 3.9057 10.5695 4.76634 10.5695C5.62699 10.5695 6.32467 11.2672 6.32467 12.1278V21.7334C6.32467 22.594 5.62699 23.2917 4.76634 23.2917ZM12.9997 23.2917C12.139 23.2917 11.4413 22.594 11.4413 21.7334V5.26671C11.4413 4.40607 12.139 3.70837 12.9997 3.70837C13.8603 3.70837 14.558 4.40606 14.558 5.26671V21.7334C14.558 22.594 13.8603 23.2917 12.9997 23.2917ZM21.233 23.2917C20.3724 23.2917 19.6747 22.594 19.6747 21.7334V17.6167C19.6747 16.7561 20.3724 16.0584 21.233 16.0584C22.0937 16.0584 22.7913 16.7561 22.7913 17.6167V21.7334C22.7913 22.594 22.0937 23.2917 21.233 23.2917Z" stroke="white"/>
</g>
</svg>
