<svg width="26" height="26" viewBox="0 0 26 26" fill="none" xmlns="http://www.w3.org/2000/svg">
<path d="M12.9998 23.8332C18.9829 23.8332 23.8332 18.9829 23.8332 12.9998C23.8332 7.01675 18.9829 2.1665 12.9998 2.1665C7.01675 2.1665 2.1665 7.01675 2.1665 12.9998C2.1665 18.9829 7.01675 23.8332 12.9998 23.8332Z" stroke="white" stroke-linecap="round" stroke-linejoin="round"/>
<path d="M9.84766 9.75013C10.1024 9.0261 10.6051 8.41558 11.2668 8.02669C11.9285 7.6378 12.7065 7.49565 13.4629 7.6254C14.2194 7.75515 14.9055 8.14845 15.3998 8.73562C15.8941 9.32279 16.1646 10.0659 16.1635 10.8335C16.1635 13.0001 12.9135 14.0835 12.9135 14.0835" stroke="white" stroke-linecap="round" stroke-linejoin="round"/>
<path d="M13 18.4165H13.0105" stroke="white" stroke-linecap="round" stroke-linejoin="round"/>
</svg>
