<svg width="26" height="26" viewBox="0 0 26 26" fill="none" xmlns="http://www.w3.org/2000/svg">
<path d="M2 6.68153C2 4.096 4.14712 2 6.79571 2H19.5843C22.233 2 24.38 4.096 24.38 6.68153V19.1656C24.38 21.7512 22.233 23.8471 19.5843 23.8471H6.79571C4.14712 23.8471 2 21.7512 2 19.1656V6.68153Z" stroke="white" stroke-linecap="round" stroke-linejoin="round"/>
<path d="M13.4742 15.47C12.1433 16.3263 10.3921 15.3707 10.3921 13.788V12.1186C10.3921 10.5359 12.1432 9.58028 13.4742 10.4366L14.7716 11.2713C15.9954 12.0587 15.9954 13.8479 14.7716 14.6352L13.4742 15.47Z" stroke="white" stroke-linecap="round" stroke-linejoin="round"/>
<path d="M19.9429 19.051H19.6881C19.3364 19.051 19.0513 19.3362 19.0513 19.6879C19.0513 20.0396 19.3364 20.3248 19.6881 20.3248H19.9429C20.2947 20.3248 20.5798 20.0396 20.5798 19.6879C20.5798 19.3362 20.2947 19.051 19.9429 19.051Z" fill="white"/>
<path d="M17.8111 19.051H17.5563C17.2046 19.051 16.9194 19.3362 16.9194 19.6879C16.9194 20.0396 17.2046 20.3248 17.5563 20.3248H17.8111C18.1628 20.3248 18.4479 20.0396 18.4479 19.6879C18.4479 19.3362 18.1628 19.051 17.8111 19.051Z" fill="white"/>
</svg>
