<svg width="20" height="20" viewBox="0 0 20 20" fill="none" xmlns="http://www.w3.org/2000/svg">
<path d="M14.0443 10.2177C14.0443 12.4514 12.2335 14.2622 9.9999 14.2622C7.76622 14.2622 5.95546 12.4514 5.95546 10.2177C5.95546 7.98402 7.76622 6.17327 9.9999 6.17327C12.2335 6.17327 14.0443 7.98402 14.0443 10.2177ZM14.0443 10.2177V11.7344C14.0443 13.1304 15.1761 14.2622 16.5721 14.2622C17.9682 14.2622 19.0999 13.1304 19.0999 11.7344V10.2177C19.0999 5.19192 15.0257 1.11771 9.9999 1.11771C4.97411 1.11771 0.899902 5.19192 0.899902 10.2177C0.899902 15.2435 4.97411 19.3177 9.9999 19.3177H14.0443" stroke="white" stroke-linecap="round" stroke-linejoin="round"/>
</svg>
