<svg width="40" height="40" viewBox="0 0 40 40" fill="none" xmlns="http://www.w3.org/2000/svg">
<path d="M38.3333 18.3333H35V15H31.6667V18.3333H28.3333V21.6666H31.6667V25H35V21.6666H38.3333M13.3333 18.3333V22.3333H20C19.6667 24 18 27.3333 13.3333 27.3333C9.33333 27.3333 6.16667 24 6.16667 20C6.16667 16 9.33333 12.6666 13.3333 12.6666C15.6667 12.6666 17.1667 13.6666 18 14.5L21.1667 11.5C19.1667 9.49998 16.5 8.33331 13.3333 8.33331C6.83333 8.33331 1.66667 13.5 1.66667 20C1.66667 26.5 6.83333 31.6666 13.3333 31.6666C20 31.6666 24.5 27 24.5 20.3333C24.5 19.5 24.5 19 24.3333 18.3333H13.3333Z" fill="#6486DB"/>
</svg>
