<svg width="26" height="26" viewBox="0 0 26 26" fill="none" xmlns="http://www.w3.org/2000/svg">
<path d="M22.5873 18.85L21.6936 17.4688C20.1498 15.1938 19.3373 12.5125 19.3373 9.75C19.3373 6.825 17.3873 4.46875 14.7873 3.65625C14.5436 2.925 13.8123 2.4375 12.9998 2.4375C12.1873 2.4375 11.4561 2.925 11.2123 3.65625C8.6123 4.46875 6.6623 6.825 6.6623 9.75C6.6623 12.5125 5.8498 15.1938 4.30605 17.4688L3.4123 18.85C3.00605 19.5 3.4123 20.3125 4.2248 20.3125H21.7748C22.5873 20.3125 22.9936 19.5 22.5873 18.85Z" stroke="white" stroke-miterlimit="10" stroke-linecap="round" stroke-linejoin="round"/>
<path d="M16.25 20.3125C16.25 22.1 14.7875 23.5625 13 23.5625C11.2125 23.5625 9.75 22.1 9.75 20.3125" stroke="white" stroke-miterlimit="10" stroke-linecap="round" stroke-linejoin="round"/>
</svg>
